<?xml version="1.0" encoding="UTF-8"?>
<svg id="color" xmlns="http://www.w3.org/2000/svg" viewBox="0 0 1126.1 291.1">
  <defs>
    <style>
      .cls-1 {
        letter-spacing: -.02em;
      }

      .cls-2 {
        letter-spacing: 0em;
      }

      .cls-3 {
        letter-spacing: 0em;
      }

      .cls-4 {
        letter-spacing: -.05em;
      }

      .cls-5 {
        letter-spacing: 0em;
      }

      .cls-6 {
        letter-spacing: -.02em;
      }

      .cls-7 {
        letter-spacing: -.05em;
      }

      .cls-8 {
        letter-spacing: 0em;
      }

      .cls-9 {
        font-family: Montserrat-Regular, Montserrat;
        font-size: 12px;
      }

      .cls-10 {
        letter-spacing: -.02em;
      }

      .cls-11 {
        letter-spacing: 0em;
      }

      .cls-12 {
        letter-spacing: 0em;
      }

      .cls-13 {
        letter-spacing: -.02em;
      }

      .cls-14 {
        fill: #86afc1;
        stroke: #86afc1;
        stroke-miterlimit: 10;
        stroke-width: .27px;
      }

      .cls-15 {
        fill: #273a5b;
      }

      .cls-15, .cls-16, .cls-17, .cls-18 {
        stroke-width: 0px;
      }

      .cls-16 {
        fill: #ade4f7;
      }

      .cls-17 {
        fill: #64838e;
      }

      .cls-18 {
        fill: #06133f;
      }

      .cls-19 {
        letter-spacing: -.01em;
      }
    </style>
  </defs>
  <path class="cls-18" d="m139.36,160.01c-1.07,0-1.95,0-2.83,0-19.15,0-38.3-.03-57.45.06-2.2,0-3.32-.82-4.12-2.75-2.66-6.46-4.15-13.1-4.36-20.12-.27-9.13,1.15-18.08,2.28-27.07.76-6.02,1.14-12.09,1.78-18.13.45-4.22,1.09-8.42,1.57-12.63.15-1.34.76-1.89,2.09-1.87,2.16.04,4.33,0,6.49,0q3.95,0,3.53,4.04c-.77,7.37-1.56,14.73-2.33,22.09-.05.5-.25,1.08-.07,1.48.44.99.88,2.45,1.65,2.69.94.3,2.68-.07,3.26-.8,1.93-2.44,4.22-4.15,7.07-5.34.74-.31,1.37-1.55,1.52-2.45.5-2.94,2.17-4.74,4.8-4.81,2.66-.06,4.7,1.59,5.04,4.48.2,1.62.92,2.23,2.39,2.66,2.93.85,5.4,2.38,7.36,4.87.71.9,2.45,1.66,3.49,1.44.89-.19,1.93-1.83,2.07-2.94.85-6.68,1.47-13.4,2.15-20.1q.74-7.3,8-7.3c5.31,0,5.15-.02,4.51,5.39-1.08,9.17-1.91,18.37-2.88,27.55-.72,6.78-1.76,13.54-2.17,20.33-.58,9.64.08,19.16,4.83,27.93.14.27.15.61.3,1.31Z"/>
  <path class="cls-14" d="m837.82,122.76c-1.8-2.11-4.99-.98-7.26-2.74.97-1.67,1.99-3.27,2.83-4.96.31-.63.21-1.46.3-2.2-.61.4-1.43.67-1.78,1.23-1.7,2.66-3.34,5.37-4.86,8.14-.96,1.75-1.91,2.31-3.94,1.38-4.17-1.9-4.23-1.77-7.04,1.92-.4.53-.88,1.02-1.2,1.59-.81,1.46-1.76,1.6-3.28.89-4.33-2.02-4.35-1.93-7.77,1.65-1.37,1.44-2.8,2.82-4.39,4.42-.15-.54-.33-.89-.33-1.23,0-12.9,0-25.81.05-38.71.01-4.79,2.05-6.79,6.88-6.8,11.49-.02,22.98-.03,34.47-.03,5.2,0,7.11,1.86,7.11,7.07.01,21.56,0,43.13,0,64.69,0,1.58.09,3.16.05,4.74-.1,3.8-2.08,6.03-5.82,6.1-9.39.17-18.78.17-28.17.23-2.83.02-5.66.09-8.49.02-3.98-.09-6.29-2.57-6.25-6.53.08-7.99.06-15.98.26-23.97.03-1.33.72-2.85,1.57-3.92,1.7-2.14,3.78-3.97,5.6-6.03,1-1.14,1.95-1.34,3.24-.59.93.54,1.92,1.21,2.94,1.32,1.14.13,2.35-.3,4.18-.59,1.33,1.47,3.1,3.53,5,5.47.59.6,1.52.86,2.29,1.28-.25-.79-.51-1.57-.76-2.36-.07-.23-.15-.45-.33-1.03,1.76-.11,3.4-.16,5.01-.36.55-.07,1.05-.55,1.57-.85-.55-.35-1.09-.97-1.66-1.01-1.32-.09-2.68-.03-3.98.21-2.31.44-3.93-.29-5.38-2.16-.96-1.24-1.29-2.02-.25-3.4.98-1.29,1.89-1.41,3.18-.72.58.31,1.25.49,1.81.83,2.16,1.3,3.74.89,4.75-1.49.74-1.77,2-2.14,3.83-1.62,1.86.53,3.81.75,5.71,1.1.1-.34.2-.68.3-1.02Zm-19.16,39.64c0,.34,0,.68-.01,1.02h11.2c0-.35.02-.69.02-1.04-3.72-.67-7.48.07-11.21.02Z"/>
  <path class="cls-17" d="m618.01,102.52c4.04-2.09,7.88-3.22,11.96-3.74,2.46-.31,4.87-.99,7.33-1.3.91-.12,2.18.04,2.8.6,2.41,2.17,4.65,4.53,6.88,6.89.44.47.83,1.33.73,1.92-.69,3.99-1.31,8.01-2.34,11.92-3.14,11.89-10.51,20.67-20.94,26.82-4.48,2.64-7.67,5.97-10.19,10.54-2.24,4.08-5.35,7.82-8.64,11.17-4.61,4.69-9.85,4.08-14.37-1.31,1.31-.99,2.64-1.93,3.91-2.95,1.2-.96,2.35-2,3.51-3.01-.18-.27-.35-.55-.53-.82-.63.21-1.32.31-1.87.64-.92.56-1.77,1.24-2.63,1.9-4.3,3.36-4.86,3.25-8.04-1.67,2.07-3.34,6.15-5.18,7.75-8.93l-.82-.76c-1.33,1.24-2.68,2.48-4,3.74-.6.57-1.16,1.19-1.74,1.78-2.89,2.98-2.84,2.92-5.85.11-1.33-1.24-1.38-2.26-.26-3.6,1.22-1.47,2.41-2.98,3.45-4.58.35-.55.2-1.42.28-2.15-.6.32-1.38.5-1.77.98-1.52,1.86-2.92,3.82-4.35,5.71-4.17-1.88-5.37-8.41-1.84-11.96,3.49-3.51,7.24-7.03,11.51-9.41,5.01-2.79,9.12-6.01,11.51-11.23.96-2.1,2.03-2.01,3.5-.5,2.84,2.92,5.82,5.72,8.61,8.69,1.59,1.69,2.8,1.9,4.51.1,3.73-3.92,7.58-7.72,11.47-11.47,1.64-1.57,1.63-2.85.03-4.39-2.46-2.35-4.85-4.78-7.26-7.2-.69-.7-1.33-1.46-2.3-2.54Z"/>
  <path class="cls-18" d="m141.16,158.08c-2.77-4.61-4.11-8.93-4.59-13.47-.93-8.72-.58-17.43.53-26.14,1.29-10.06,2.32-20.15,3.48-30.23.09-.81.22-1.61.9-2.47.71,4.08,1.67,8.13,2.09,12.24,1.08,10.58,2.5,21.17,2.66,31.77.11,7.31-1.53,14.67-2.62,21.97-.29,1.95-1.43,3.78-2.45,6.33Z"/>
  <path class="cls-17" d="m626.69,114.62c-.33.41-.56.74-.84,1.03-3.46,3.48-6.95,6.93-10.38,10.43-1.09,1.11-1.97,1.22-3.12.03-2.83-2.93-5.74-5.78-8.66-8.62-1.18-1.15-1.35-2.24-.08-3.36,3.66-3.24,7.3-6.49,11.06-9.62.46-.38,1.87-.32,2.32.1,3.04,2.84,5.94,5.82,8.87,8.77.33.33.54.79.84,1.24Z"/>
  <path class="cls-17" d="m652.11,106.97c-4.9-4.84-9.43-9.33-14.31-14.15,1.99-1.87,3.79-3.93,5.96-5.49,1.57-1.13,3.51-.86,5.01.65,2.69,2.71,5.4,5.41,8.05,8.16,1.6,1.66,1.83,3.62.39,5.41-1.55,1.92-3.38,3.6-5.11,5.42Z"/>
  <path class="cls-15" d="m395.29,152.03c-.73-.88-.75-1.38-.01-2.12.57-.57.86-1.16.29-2.06-.44.86-1.58.83-1.85,1.91-.12.49-.56.17-.74-.22-.38-.8-.39-.8-1.08-.76-.47-1.3-.55-1.32-1.8-.6-.12.07-.3.04-.45.03-.19,0-.49-.13-.57-.05-.92.96-1.61.54-2.62-.03-.8-.44-.29-1.29-1.07-1.57-1.34.62-2.77,1.29-4.22,1.96-.5-1.32-1.83-2.23-3.02-2.09-.27.03-.49.55-.87,1.02h-2.6c-.01-.16-.03-.45-.06-.74-.33.24-.67.48-1.23.89-1.49-.15-3.32-.34-4.99-1.31-.04.08-.08.16-.12.25-.02-.18-.07-.37-.04-.53.16-.73-.06-.94-.78-.66-.26.1-.59,0-.87.07-.22.05-.51.18-.6.35-.47.92-1.13,1.15-2.03.64-.34-.19-.68-.39-.86-.66-.43-.81-.86-1.62-1.38-2.6-.37.46-.73.72-.77,1.02-.12.85-.68,1.25-1.38,1.29-.85.04-1.94.74-2.47-.64-.17-.46-.46-.89-.76-1.28-.16-.2-.59-.47-.68-.41-.38.28-.74.63-1,1.02-.16.25-.12.62-.14.82-.52.14-.93.26-1.34.37,0,.09-.01.18-.02.27-.25-.23-.5-.45-.81-.72-.26.24-.52.47-.92.84-.18-.63-.32-1.14-.39-1.4-.82-.25-1.48-.45-2.4-.73-.11.2-.32.6-.51.96-.45-.04-1.06-.13-1.66-.14-1.18-.03-1.35-.2-1.52-1.32-.08-.53-.33-1.03-.56-1.71-.34.37-.58.56-.71.8-.78,1.35-1.92,1.8-3.35,1.34-.21-.07-.47,0-.7.04-.27.05-.53.14-.79.22,0-.31-.04-.62,0-.92.03-.21.15-.41.36-.94-2.42,1.18-4.65,1.97-6.6-.42-.34.54-.59.94-.9,1.43-.29-.35-.49-.58-.57-.68-.95.21-1.78.47-2.62.54-.18.02-.4-.64-.63-.96-.19-.26-.42-.69-.63-.69-.64,0-1.31-.67-1.93.11-.76.95-1.94,1.09-2.7.17-.82-1.01-1.54-.97-2.54-.33-1.04.67-3.61.12-4.29-.83-.15-.21-.11-.55-.2-1.07-.41.22-.9.35-1.16.66-.57.66-1.18,1.05-2.07.97-.24-.02-.49.14-.46.13-.75-.41-1.34-.67-1.86-1.02-.49-.34-.9-.78-1.51-1.33-.5.81-1.05,1.7-1.71,2.76.02,0-.25-.04-.43-.2-.59-.53-1.15-1.09-1.7-1.66-.15-.15-.22-.37-.34-.54-.23-.31-.43-.84-.71-.88-.61-.09-1.09.3-1.17.96-.13,1.03-.81,1.32-1.62,1.05-.69-.23-1.32-.71-1.89-1.18-.55-.45-.98-1.03-1.6-1.7-.23.69-.33,1.16-.54,1.58-.11.21-.46.51-.61.47-1.18-.36-2.51-.17-3.55-1-.2-.16-.35-.38-.53-.57-.23-.24-.47-.47-.87-.87-.04.58-.06.89-.07,1.1-.47.17-.92.26-1.3.48-1.31.76-2.24.44-2.75-.98-.08-.23-.23-.43-.34-.65-.1,0-.2,0-.3,0-.09.47-.19.94-.29,1.49-.89-.7-1.81-.22-2.75-.06-.24.04-.55-.1-.78-.23-.63-.37-1.11-.2-1.17.55-.07.82-.02,1.64-.02,2.38-.36-.41-.91-.99-.57-1.88.34-.89.3-1.62-.41-2.34-.27-.27-.3-.76-.47-1.21-.78.61-1.41,1.32-2.2,1.64-.75.3-1.67.17-2.51.23-.05-.73-.11-1.46-.16-2.21-1.25.29-2.11.57-2.55,1.7-.33.83-1.58.58-2.25-.14-.63-.68-1.48-1.16-2.27-1.68-.14-.09-.53-.04-.64.08-.84,1.01-1.93,1.03-2.97.82-.56-.88-1.1-1.73-1.63-2.57-.48.45-.96,1.02-1.55,1.42-.5.33-1.13.44-1.7.65-.28.1-.54.23-.82.34-.24.09-.48.18-.72.27-.08-.26-.24-.53-.23-.79,0-.24.18-.48.3-.75-.64-.43-1.2-.55-1.83-.05-1.06.85-3.16.51-3.92-.62-.33-.48-.64-.97-1.09-1.66-.5.62-.94,1.07-1.27,1.59-.47.74-2.19,1.16-2.89.62-.45-.35-.82-.79-1.27-1.13-.43-.33-.91-.59-1.44-.92-.77,1.21-1.87,1.47-2.98,1.26-.45-.45-.85-.85-1.26-1.26-.09.06-.18.12-.27.18-.08-1.54-.23-3.09-.24-4.63-.04-3.67-.02-7.35,0-11.02,0-4.11,2.67-6.77,6.79-6.77,47.83,0,95.66,0,143.49,0,3.89,0,6.8,2.91,6.8,6.78,0,8.37.03,16.74.03,25.12,0,2.11,0,4.22-.06,6.33-.02.98-.05,1.98-1.09,2.61-.23.14-.22.69-.33,1.12Zm-135.79-33.41c3.06-.32,5.79-.56,8.52-.91.84-.11,1.67-.41,2.46-.74.38-.16.93-.66.89-.9-.08-.39-.54-.77-.93-1.01-.41-.26-.91-.4-1.4-.5-6.12-1.25-12.24-1.26-18.36-.01-.58.12-1.15.34-1.67.62-.32.17-.76.58-.72.82.05.34.43.72.77.91.51.28,1.1.52,1.67.6,3.01.41,6.03.77,8.77,1.11Zm113.56,27.75c.11,0,.23,0,.34.01.16-.32.32-.64.47-.97-.06-.07-.12-.14-.18-.2-.29.14-.65.22-.85.43-.09.09.14.47.22.72Z"/>
  <rect class="cls-15" x="386.69" y="101.29" width="68.82" height="55.33" rx="23.61" ry="23.61"/>
  <text class="cls-9" transform="translate(82.62 211.21)"><tspan class="cls-7" x="0" y="0">T</tspan><tspan class="cls-13" x="6.23" y="0">e</tspan><tspan class="cls-8" x="13.3" y="0">xtiles</tspan></text>
  <text class="cls-9" transform="translate(305.9 209.81)"><tspan class="cls-1" x="0" y="0">C</tspan><tspan x="8.35" y="0">onstru</tspan><tspan class="cls-3" x="47.59" y="0">c</tspan><tspan class="cls-11" x="54.24" y="0">c</tspan><tspan x="60.9" y="0">ion</tspan></text>
  <text class="cls-9" transform="translate(574.35 213.14)"><tspan x="0" y="0">E</tspan><tspan class="cls-12" x="8.03" y="0">n</tspan><tspan class="cls-10" x="16.02" y="0">v</tspan><tspan x="22.33" y="0">ases</tspan></text>
  <text class="cls-9" transform="translate(761.84 212.46)"><tspan x="0" y="0">A</tspan><tspan class="cls-2" x="8.6" y="0">p</tspan><tspan x="16.7" y="0">a</tspan><tspan class="cls-4" x="23.78" y="0">r</tspan><tspan x="28.03" y="0">a</tspan><tspan class="cls-6" x="35.11" y="0">t</tspan><tspan x="39.76" y="0">os ele</tspan><tspan class="cls-5" x="74" y="0">c</tspan><tspan x="80.83" y="0">t</tspan><tspan class="cls-19" x="85.7" y="0">r</tspan><tspan x="90.36" y="0">oni</tspan><tspan class="cls-3" x="109.22" y="0">c</tspan><tspan x="115.87" y="0">os</tspan></text>
  <text class="cls-9" transform="translate(1000.29 214.67)"><tspan x="0" y="0">Neumati</tspan><tspan class="cls-3" x="52.98" y="0">c</tspan><tspan x="59.63" y="0">os</tspan></text>
  <path class="cls-16" d="m1037.07,167.83c-21.54.01-38.89-17.31-38.93-38.87-.04-21.38,17.37-38.9,38.66-38.9,21.73,0,39.18,17.37,39.11,38.92-.07,21.51-17.39,38.83-38.84,38.84Zm24.46-22.13c.79-1.35,1.54-2.62,2.29-3.9,1.45.82,2.69,1.52,4.01,2.27,1.97-4.13,3.14-8.27,3.4-12.75-.47-.03-.81-.05-1.15-.07-1.11-.07-2.67.27-3.21-.32-.58-.63-.16-2.14-.24-3.26-.06-.86.32-1.07,1.1-1.03,1.15.05,2.3.01,3.52.01-.33-4.61-1.45-8.77-3.43-12.81-1.39.78-2.67,1.5-4.02,2.26-.78-1.35-1.5-2.59-2.27-3.91,1.34-.8,2.62-1.57,3.98-2.38-2.56-3.78-5.64-6.82-9.37-9.36-.83,1.42-1.57,2.69-2.34,4-1.39-.81-2.63-1.53-3.94-2.29.76-1.35,1.48-2.63,2.27-4.05-4.08-1.95-8.25-3.12-12.83-3.38v4.51h-4.57v-4.53c-4.59.31-8.77,1.43-12.85,3.41.83,1.44,1.55,2.71,2.31,4.03-1.36.79-2.6,1.5-3.92,2.27-.8-1.35-1.55-2.61-2.37-3.98-3.75,2.55-6.84,5.6-9.35,9.38,1.37.81,2.63,1.56,3.97,2.35-.79,1.36-1.52,2.61-2.29,3.92-1.42-.8-2.69-1.52-4.01-2.27-2,4.12-3.14,8.27-3.41,12.76.53.03.91.05,1.29.07,1.04.04,2.53-.31,3.01.23.56.63.19,2.05.32,3.12.13,1.08-.35,1.34-1.33,1.27-1.07-.08-2.14-.02-3.3-.02.31,4.62,1.43,8.78,3.44,12.82,1.37-.78,2.65-1.5,4.02-2.28.78,1.36,1.49,2.59,2.25,3.91-1.34.81-2.62,1.58-3.89,2.35,1.9,3.27,6.86,8.17,9.37,9.26.74-1.25,1.49-2.51,2.29-3.85,1.35.78,2.61,1.51,3.91,2.26-.79,1.4-1.5,2.67-2.28,4.05,4.12,1.98,8.3,3.12,12.86,3.39v-4.48h4.6v4.49c4.54-.33,8.71-1.42,12.77-3.42-.78-1.38-1.51-2.66-2.29-4.03,1.33-.76,2.6-1.49,3.96-2.28.8,1.37,1.56,2.66,2.34,4,3.77-2.65,6.88-5.63,9.34-9.39-1.37-.81-2.63-1.57-3.96-2.36Z"/>
  <path class="cls-16" d="m1037.18,154.17c-13.71.13-25.24-11.1-25.39-24.71-.15-14.2,10.9-25.56,25.06-25.74,13.66-.18,25.29,11.14,25.38,24.71.1,14.25-10.96,25.61-25.05,25.74Zm8.13-44.15c-5.6-2.3-11.01-2.3-16.58,0,1.23,2.14,2.38,4.16,3.55,6.17.71,1.2,1.19,2.84,2.25,3.45,1.07.61,2.72.17,4.12.19.12,0,.25.04.35,0,.32-.16.75-.27.91-.53,1.79-3.01,3.53-6.05,5.39-9.26Zm-16.58,37.85c5.63,2.3,11.04,2.31,16.58-.02-1.22-2.1-2.36-4.09-3.53-6.06-.73-1.23-1.23-2.92-2.32-3.53-1.1-.62-2.8-.17-4.24-.18-.04,0-.09-.01-.12,0-.34.18-.84.28-1.01.56-1.79,3.01-3.53,6.05-5.37,9.24Zm-12.23-16.63c.82,6,3.53,10.67,8.28,14.31,1.23-2.13,2.4-4.11,3.53-6.11.69-1.21,1.88-2.46,1.86-3.68-.02-1.27-1.23-2.52-1.93-3.78-.06-.1-.09-.24-.18-.3-.24-.17-.5-.42-.75-.43-3.54-.03-7.08-.02-10.81-.02Zm8.28-18.92c-4.75,3.66-7.48,8.33-8.27,14.32,2.47,0,4.79,0,7.12,0q4.45,0,6.43-3.95c.15-.3.21-.79.06-1.06-1.73-3.08-3.52-6.14-5.35-9.31Zm32.61,14.32c.16-4.6-4.3-12.27-8.21-14.16-1.76,3.05-3.54,6.1-5.27,9.18-.15.26-.06.76.09,1.05.58,1.1,1.18,2.2,1.88,3.22.23.34.77.65,1.17.67,2.02.07,4.04.03,6.07.03,1.43,0,2.85,0,4.27,0Zm.15,4.6c-.5,0-.87,0-1.25,0-1.94,0-3.89-.01-5.83,0-1.4.01-3.05-.39-4.11.22-1.06.61-1.48,2.29-2.25,3.45-.4.61-.37,1.08,0,1.7,1.58,2.68,3.12,5.39,4.68,8.08.15.25.34.48.57.8,4.69-3.64,7.42-8.27,8.2-14.25Zm-20.5,2.15c2.1.71,2.95-.55,3.97-2.13,1.11-1.73.99-2.97-.01-4.7-.99-1.7-2.03-2.3-4-2.29-1.97.01-2.99.64-3.99,2.32-1.04,1.75-1.02,2.99.03,4.7,1,1.63,1.94,2.77,4,2.09Z"/>
</svg>